<?xml version="1.0" encoding="UTF-8"?>
<!DOCTYPE svg PUBLIC "-//W3C//DTD SVG 1.1//EN" "http://www.w3.org/Graphics/SVG/1.1/DTD/svg11.dtd">
<!-- Creator: CorelDRAW -->
<svg xmlns="http://www.w3.org/2000/svg" xml:space="preserve" width="189px" height="118px" style="shape-rendering:geometricPrecision; text-rendering:geometricPrecision; image-rendering:optimizeQuality; fill-rule:evenodd; clip-rule:evenodd"
viewBox="0 0 189 118.125"
 xmlns:xlink="http://www.w3.org/1999/xlink">
 <defs>
  <style type="text/css">
   <![CDATA[
    .str1 {stroke:#F9FBFC;stroke-width:0.231525}
    .str2 {stroke:white;stroke-width:0.231525}
    .str0 {stroke:white;stroke-width:0.46305}
    .fil3 {fill:#2A5481}
    .fil0 {fill:#F9FBFC}
    .fil1 {fill:#FEFEFE}
    .fil6 {fill:white}
    .fil4 {fill:#2A5481;fill-rule:nonzero}
    .fil5 {fill:#F58634;fill-rule:nonzero}
    .fil2 {fill:#FEFEFE;fill-rule:nonzero}
    .fil7 {fill:white;fill-rule:nonzero}
    .fil11 {fill:url(#id0)}
    .fil9 {fill:url(#id1)}
    .fil8 {fill:url(#id2)}
    .fil10 {fill:url(#id3)}
   ]]>
  </style>
  <radialGradient id="id0" gradientUnits="userSpaceOnUse" cx="45.6187" cy="55.6345" r="12.3665" fx="45.6187" fy="55.6345">
   <stop offset="0" style="stop-color:#FEFEFE"/>
   <stop offset="0.25098" style="stop-color:#F9C299"/>
   <stop offset="1" style="stop-color:#F58634"/>
   <stop offset="1" style="stop-color:#F58634"/>
  </radialGradient>
  <radialGradient id="id1" gradientUnits="userSpaceOnUse" xlink:href="#id0" cx="68.4003" cy="107.261" r="12.3665" fx="68.4003" fy="107.261">
  </radialGradient>
  <radialGradient id="id2" gradientUnits="userSpaceOnUse" xlink:href="#id0" cx="69.5048" cy="66.2457" r="6.15667" fx="69.5048" fy="66.2457">
  </radialGradient>
  <radialGradient id="id3" gradientUnits="userSpaceOnUse" xlink:href="#id0" cx="68.307" cy="66.6083" r="6.4449" fx="68.307" fy="66.6083">
  </radialGradient>
 </defs>
 <g id="Layer_x0020_1">
  <metadata id="CorelCorpID_0Corel-Layer"/>
  <g id="_278834112">
   <path id="_538593408" class="fil0" d="M168.784 92.6206c0.543375,0.864675 0.97335,1.82858 1.26748,2.87398l2.20303 7.81161 -2.12979 0.575269c-0.51975,1.63485 -1.45884,3.11732 -2.7594,4.32219 -0.7938,0.732375 -1.67619,1.31827 -2.62356,1.75652l0 0.823331 -2.65781 0c-0.635512,0.108675 -1.2852,0.164194 -1.94316,0.164194 -0.672131,0 -1.32654,-0.0578812 -1.95969,-0.164194l-5.57786 0c-0.588262,0.106312 -1.19661,0.164194 -1.81676,0.164194 -0.622519,0 -1.23913,-0.0555187 -1.84393,-0.164194l-16.9179 0c-0.594169,0.106312 -1.20606,0.164194 -1.83212,0.164194 -0.626063,0 -1.24149,-0.0555187 -1.84511,-0.164194l-1.95142 0c-0.660319,0.108675 -1.33836,0.164194 -2.0223,0.164194 -1.60886,0 -3.11259,-0.3024 -4.46394,-0.867037 -0.0531563,0.0248062 -0.106313,0.04725 -0.16065,0.0685125l0 0.631969 -2.1924 0c-0.618975,0.107494 -1.26276,0.164194 -1.92426,0.164194 -0.646144,0 -1.27929,-0.0555188 -1.89709,-0.164194l-3.35593 0c-0.507937,0.0779625 -1.02887,0.119306 -1.55925,0.119306 -0.535106,0 -1.05958,-0.0413438 -1.57343,-0.119306l-4.80296 0 0 -2.14988c-0.855225,-0.712294 -1.59941,-1.57697 -2.19712,-2.57867 -1.19897,-2.00222 -1.69746,-4.26313 -1.69746,-6.57956 0,-2.28336 0.478406,-4.50883 1.63721,-6.47207 -1.64194,-2.54323 -2.37668,-5.51171 -2.37668,-8.60304 0,-1.05958 0.0909563,-2.10144 0.277594,-3.11614 -0.350831,0.004725 -0.700481,0.00945 -1.04777,0.0118125 -0.659137,3.27324 -2.41211,6.16849 -5.91806,7.65568 -0.669769,0.284681 -1.34662,0.484312 -2.02584,0.607162 -1.96324,0.608344 -3.969,0.535106 -5.85546,-0.0567 -1.77187,3.91703 -3.82489,7.69348 -6.17676,11.0624 -3.07834,4.41197 -7.56354,9.19958 -12.9796,10.2651 -1.97387,0.581175 -4.08358,0.682762 -6.30315,0.0874125 -10.5179,-2.81374 -10.7423,-17.2002 -9.92368,-27.0128 -4.11784,-0.375638 -7.96163,-2.14869 -9.74177,-6.39883 -1.09974,-2.6271 -0.947363,-5.37233 0.0767812,-7.86476 -4.15918,-1.84157 -8.18134,-3.99381 -11.7464,-6.4827 -5.75741,-4.01743 -12.1574,-10.4281 -10.0832,-18.1794 1.45884,-5.44674 6.01729,-8.13409 11.4404,-9.34487 6.40946,-1.7199 14.3108,-1.14227 19.7151,-0.556369 0.0567,-3.59809 1.25685,-6.99654 4.6116,-9.24682 1.21314,-0.8127 2.46527,-1.3041 3.72921,-1.53563 1.63603,-0.505575 3.30396,-0.539831 4.94117,-0.233888l2.53142 -5.73733c1.58169,-3.58628 3.62644,-7.31903 6.30197,-10.2107 2.18177,-2.35659 4.87974,-4.17572 7.93091,-4.76634 1.55216,-0.459506 3.20473,-0.607163 4.93762,-0.342562 11.4014,1.74589 12.9642,17.9137 12.6665,30.1798 3.81426,0.00590625 7.44542,1.20487 9.81737,4.71909 2.27272,3.36892 2.10617,7.06033 0.778444,10.4623l4.29621 1.89591c3.58509,1.58051 7.31902,3.62762 10.2084,6.30315 3.30277,3.05707 5.54951,7.13239 4.83958,11.7676 -0.0732375,0.474863 -0.171281,0.930825 -0.291769,1.37379l0.150019 0c0.817425,-0.181912 1.67737,-0.278775 2.57631,-0.278775 0.310669,0 0.617794,0.0106313 0.923738,0.033075l0.203175 -2.57749 17.9455 -1.60296 0 4.34228c0.805613,-0.129937 1.63131,-0.194906 2.47354,-0.194906 0.994613,0 1.96678,0.0933187 2.90588,0.278775l9.25864 0c0.923738,-0.258694 1.88528,-0.395719 2.87516,-0.395719 0.48195,0 0.244519,-0.00590625 0.838687,0.0259875l7.58008 0.421706 0 18.835 -3.77173 0 0 4.03397 0.00826875 -0.00354375z"/>
   <path id="_538592256" class="fil1" d="M70.445 79.9635c12.7268,0 23.1064,-9.91896 23.1064,-22.0835 0,-12.1645 -10.3796,-22.0858 -23.1064,-22.0858 -12.7268,0 -23.1088,9.92132 -23.1088,22.0858 0,12.1645 10.3796,22.0835 23.1088,22.0835z"/>
   <path id="_538592160" class="fil1" d="M72.6811 38.1768c7.5033,0.948544 13.2229,4.59034 12.774,8.13173 -0.448875,3.54139 -6.89377,5.64637 -14.3959,4.69783 -7.5033,-0.949725 -13.2229,-4.59034 -12.774,-8.13409 0.448875,-3.54139 6.89259,-5.64637 14.3959,-4.69783l0 0.0023625z"/>
   <path id="_538592040" class="fil1" d="M46.4267 43.4204c-23.6971,-0.284681 -21.0889,12.0606 6.33977,21.7527 6.5016,2.39676 26.1517,6.23936 31.7886,6.22519 17.4577,1.0395 38.4993,-0.9072 21.1656,-13.5289 17.5156,7.73128 14.4254,18.0223 -21.194,14.8046 -10.3111,-0.819787 -21.7787,-3.02991 -32.0816,-6.30551 -29.9742,-8.8641 -42.6526,-27.1156 -6.01847,-22.9481z"/>
   <path id="_538591992" class="fil1" d="M56.2263 80.8518c-0.284681,23.6947 12.0594,21.0877 21.7515,-6.34095 2.39794,-6.5016 6.24054,-26.1517 6.22401,-31.7898 1.04186,-17.4577 -0.9072,-38.4993 -13.5265,-21.1656 7.7301,-17.5168 18.0223,-14.4266 14.8046,21.194 -0.819787,10.3111 -3.02991,21.7775 -6.30551,32.0804 -8.86646,29.973 -27.1168,42.6514 -22.9481,6.01965l0 0.0023625z"/>
   <path id="_538592640" class="fil1" d="M50.0212 68.2207c-3.9879,6.22873 -0.693394,8.41168 15.4673,1.7388 4.23242,-1.74943 15.5015,-8.69046 18.2326,-11.2266 8.94797,-7.31903 18.2952,-17.6987 4.21824,-16.0591 11.9732,-4.09539 15.0869,2.2869 -3.65951,16.6911 -5.37469,4.22533 -11.9365,8.29119 -18.411,11.3176 -18.1038,10.369 -26.1907,4.49584 -15.8477,-2.46527l0 0.00354375z"/>
   <path id="_538592544" class="fil1" d="M81.1932 77.594c5.78222,3.72212 7.66749,0.497306 1.11156,-14.9617 -1.71872,-4.04933 -8.37034,-14.781 -10.7565,-17.3667 -6.92567,-8.48492 -16.6426,-17.2947 -14.7243,-3.7422 -4.08831,-11.4723 1.62186,-14.6062 15.283,3.19056 4.00326,5.10182 7.9002,11.3518 10.8462,17.5368 9.97329,17.2581 4.88329,25.1854 -1.7577,15.3444l-0.0023625 -0.00118125z"/>
   <path id="_538592448" class="fil1" d="M71.5448 79.6978c12.7268,0 23.1064,-9.92132 23.1064,-22.0846 0,-12.1633 -10.3796,-22.0846 -23.1064,-22.0846 -12.7268,0 -23.1064,9.92132 -23.1064,22.0846 0,12.1645 10.3796,22.0846 23.1064,22.0846z"/>
   <path id="_538592592" class="fil1" d="M73.7832 37.9099c7.5033,0.947362 13.2229,4.59034 12.7752,8.13172 -0.447694,3.54375 -6.89259,5.64756 -14.3959,4.69783 -7.50212,-0.949725 -13.2229,-4.59034 -12.774,-8.13409 0.448875,-3.54257 6.89377,-5.64637 14.3959,-4.69665l-0.00118125 0.00118125z"/>
   <path id="_538592328" class="fil1" d="M47.5288 43.1487c-23.6971,-0.284681 -21.0889,12.0606 6.33977,21.7527 6.5016,2.39794 26.1517,6.23936 31.7886,6.22401 17.4565,1.0395 38.4981,-0.9072 21.1656,-13.5265 17.5168,7.7301 14.4254,18.0223 -21.194,14.8034 -10.3111,-0.818606 -21.7787,-3.02991 -32.0816,-6.30433 -29.9742,-8.86528 -42.6526,-27.1168 -6.01847,-22.9493z"/>
   <path id="_538591968" class="fil1" d="M57.3272 80.5849c-0.2835,23.6947 12.0606,21.0877 21.7527,-6.34095 2.39794,-6.50278 6.24054,-26.1505 6.22401,-31.7898 1.04186,-17.4577 -0.9072,-38.5005 -13.5265,-21.1656 7.7301,-17.5144 18.0223,-14.4254 14.8046,21.1952 -0.819788,10.3123 -3.02991,21.7787 -6.30551,32.0804 -8.86528,29.9742 -27.1144,42.6526 -22.9493,6.02083z"/>
   <path id="_538591464" class="fil1" d="M51.1233 67.9538c-3.9879,6.22873 -0.693394,8.41168 15.4673,1.7388 4.23478,-1.74825 15.5004,-8.69046 18.2326,-11.2266 8.94797,-7.31903 18.2952,-17.6987 4.21943,-16.0579 11.9743,-4.09776 15.0869,2.2869 -3.65951,16.6911 -5.37469,4.22415 -11.9365,8.29119 -18.4098,11.3176 -18.1038,10.3678 -26.1919,4.49702 -15.8477,-2.46409l-0.0023625 0.00118125z"/>
   <path id="_538591920" class="fil1" d="M82.2953 77.3258c5.78104,3.72212 7.66749,0.497306 1.11156,-14.9629 -1.7199,-4.04933 -8.37034,-14.7833 -10.7576,-17.3656 -6.92449,-8.48728 -16.6426,-17.2959 -14.7255,-3.7422 -4.08713,-11.4723 1.62067,-14.6073 15.283,3.18937 4.00326,5.10182 7.89902,11.3518 10.8462,17.5357 9.97329,17.2604 4.88211,25.1854 -1.75888,15.3456l0.00118125 0z"/>
   <path id="_284356376" class="fil2" d="M115.12 86.7675l2.70861 0.367369c-0.34965,1.19779 -1.03596,2.18767 -2.04947,2.96848 -1.01824,0.779625 -2.29281,1.16944 -3.82489,1.16944 -1.83803,0 -3.31813,-0.616613 -4.43914,-1.85574 -1.11982,-1.23322 -1.68092,-2.90587 -1.68092,-5.01795 0,-2.0034 0.565819,-3.66187 1.69509,-4.97543 1.13046,-1.31237 2.6649,-1.97269 4.59506,-1.97269 1.89236,0 3.35357,0.649687 4.38952,1.94552 1.03123,1.29583 1.54626,2.95785 1.54626,4.9896l-0.00945 0.344925 -9.10507 0c0,0.900112 0.0838688,1.62186 0.25515,2.16523 0.168919,0.543375 0.5103,1.01469 1.01706,1.4175 0.512662,0.402806 1.14463,0.6048 1.90536,0.6048 1.47893,0 2.47826,-0.717019 2.99565,-2.15224l0.00118125 0.00118125zm-0.183094 -3.96782c-0.00945,-0.953269 -0.296494,-1.73526 -0.861131,-2.34006 -0.564638,-0.601256 -1.26039,-0.904838 -2.09436,-0.904838 -0.825694,0 -1.51082,0.282319 -2.06246,0.845775 -0.550463,0.564638 -0.874125,1.36434 -0.972169,2.39912l5.99012 0zm16.8399 8.19551l-2.99447 0 0 -8.29119c0,-0.874125 -0.201994,-1.53208 -0.6048,-1.97741 -0.403987,-0.439425 -0.8883,-0.663862 -1.45884,-0.663862 -0.779625,0 -1.46593,0.346106 -2.04711,1.02769 -0.587081,0.6804 -0.883575,1.71281 -0.883575,3.08543l0 6.81936 -2.99447 0 0 -13.2666 2.73459 0 0 3.07716c0.95445,-2.23374 2.29044,-3.35475 4.01625,-3.35475 1.16589,0 2.16169,0.372094 2.99093,1.10683 0.825694,0.734737 1.24149,2.02702 1.24149,3.87332l0 8.56406zm9.72877 -2.33533l0 2.33533c-0.893025,0.193725 -1.58169,0.285862 -2.07073,0.285862 -0.807975,0 -1.49901,-0.157106 -2.07546,-0.473681 -0.578812,-0.323662 -1.00052,-0.758363 -1.26984,-1.31355 -0.269325,-0.556369 -0.400444,-1.41278 -0.400444,-2.56804l0 -6.86897 -1.65729 0 0 -2.32824 1.82858 0 0.272869 -3.45634 2.45818 -0.219713 0 3.67605 2.66726 0 0 2.32824 -2.66726 0 0 6.47325c0,0.829237 0.152381,1.39978 0.451237,1.69864 0.305944,0.305944 0.874125,0.4536 1.71281,0.4536 0.239794,0 0.490219,-0.00826875 0.750094,-0.0224438zm10.5781 -1.89236l2.70743 0.367369c-0.34965,1.19779 -1.03477,2.18767 -2.04947,2.96848 -1.01706,0.779625 -2.29163,1.16944 -3.82489,1.16944 -1.83802,0 -3.31695,-0.616613 -4.43914,-1.85574 -1.12101,-1.23322 -1.67974,-2.90587 -1.67974,-5.01795 0,-2.0034 0.563456,-3.66187 1.69273,-4.97543 1.13046,-1.31237 2.6649,-1.97269 4.59742,-1.97269 1.89118,0 3.35239,0.649687 4.38834,1.94552 1.03005,1.29583 1.54626,2.95785 1.54626,4.9896l-0.00826875 0.344925 -9.10744 0c0,0.900112 0.0862312,1.62186 0.25515,2.16523 0.171281,0.543375 0.5103,1.01469 1.01706,1.4175 0.512663,0.402806 1.14345,0.6048 1.90654,0.6048 1.48011,0 2.47944,-0.717019 2.99447,-2.15224l0.00354375 0.00118125zm-0.184275 -3.96782c-0.00945,-0.953269 -0.295312,-1.73526 -0.861131,-2.34006 -0.565819,-0.601256 -1.25921,-0.904838 -2.09318,-0.904838 -0.825694,0 -1.512,0.282319 -2.06246,0.845775 -0.551644,0.564638 -0.875306,1.36434 -0.974531,2.39912l5.99012 0 0.00118125 0zm8.85111 8.19551l-2.99447 0 0 -13.2666 2.70743 0 0 3.16457c0.386269,-1.23323 0.915469,-2.13334 1.58878,-2.7027 0.678037,-0.569363 1.36671,-0.856406 2.07546,-0.856406 0.099225,0 0.229163,0.004725 0.394537,0.0129938l0 3.22009c-1.52381,0 -2.53378,0.484313 -3.02636,1.45766 -0.493762,0.97335 -0.744187,1.91481 -0.744187,2.82555l0 6.14722 -0.00118125 -0.0023625z"/>
   <path id="_284357240" class="fil2" d="M110.361 93.7948l1.3608 0 0 8.96214 -1.25449 0 0 -1.00288c-0.318937,0.747731 -0.868219,1.12337 -1.64666,1.12337 -0.748913,0 -1.31119,-0.314213 -1.68564,-0.940275 -0.373275,-0.627244 -0.561094,-1.44821 -0.561094,-2.46173 0,-1.08911 0.206719,-1.93961 0.621338,-2.54914 0.412256,-0.605981 0.9639,-0.911925 1.65139,-0.911925 0.721744,0 1.22496,0.29295 1.51436,0.881213l0 -3.0996 0 -0.00118125zm0 5.06284c0,-0.683944 -0.127575,-1.16235 -0.385087,-1.43522 -0.259875,-0.272869 -0.526837,-0.409894 -0.800888,-0.409894 -0.761906,0 -1.14227,0.777263 -1.14227,2.33415 0,1.66556 0.385087,2.49716 1.15526,2.49716 0.297675,0 0.567,-0.140569 0.811519,-0.414619 0.242156,-0.275231 0.361463,-0.756 0.361463,-1.43758l0 -1.13636 0 0.0023625zm7.78089 0.78435l-3.74929 0c0,0.898931 0.121669,1.49782 0.362644,1.79786 0.243337,0.297675 0.549281,0.448875 0.91665,0.448875 0.61425,0 0.999338,-0.412256 1.16235,-1.23795l1.24504 0.164194c-0.327206,1.40332 -1.14463,2.10617 -2.45464,2.10617 -0.80325,0 -1.44231,-0.288225 -1.91835,-0.861131 -0.477225,-0.572906 -0.714656,-1.41159 -0.714656,-2.52197 0,-1.13518 0.239794,-2.01639 0.721744,-2.63773 0.480769,-0.622519 1.12455,-0.933188 1.92898,-0.933188 0.565819,0 1.04068,0.154744 1.42577,0.466594 0.385087,0.309488 0.656775,0.720562 0.8127,1.22378 0.159469,0.507937 0.243337,1.16944 0.258694,1.98686l0.0023625 -0.0023625zm-1.39742 -0.923738c0,-1.16944 -0.380363,-1.75297 -1.14227,-1.75297 -0.713475,0 -1.10565,0.5859 -1.17534,1.75297l2.31761 0zm10.4316 -2.92123l-1.26748 0.438244c-0.147656,-0.4725 -0.346106,-0.82215 -0.587081,-1.04659 -0.242156,-0.225619 -0.574088,-0.337838 -0.994613,-0.337838 -0.389812,0 -0.691031,0.1134 -0.903656,0.342562 -0.211444,0.231525 -0.318937,0.496125 -0.318937,0.791438 0,0.328388 0.119306,0.591806 0.3591,0.786713 0.237431,0.193725 0.715837,0.426431 1.42695,0.6993 0.609525,0.231525 1.07848,0.4536 1.40451,0.6615 0.33075,0.210263 0.59535,0.492581 0.798525,0.845775 0.203175,0.352013 0.303581,0.758363 0.303581,1.22378 0,0.752456 -0.2646,1.39387 -0.797344,1.92426 -0.531563,0.530381 -1.27811,0.792619 -2.23493,0.792619 -1.65729,0 -2.68026,-0.835144 -3.07243,-2.50779l1.32418 -0.373275c0.232706,1.10329 0.836325,1.65493 1.8144,1.65493 0.478406,0 0.839869,-0.124031 1.08793,-0.370913 0.246881,-0.246881 0.36855,-0.552825 0.36855,-0.91665 0,-0.266963 -0.08505,-0.513844 -0.25515,-0.741825 -0.168919,-0.2268 -0.592988,-0.471319 -1.27339,-0.72765 -0.719381,-0.271688 -1.23441,-0.502031 -1.55334,-0.68985 -0.316575,-0.187819 -0.587081,-0.465412 -0.811519,-0.832781 -0.224437,-0.367369 -0.333112,-0.785531 -0.333112,-1.25331 0,-0.715838 0.249244,-1.31355 0.744187,-1.80022 0.498487,-0.485494 1.15762,-0.72765 1.98214,-0.72765 1.45648,0 2.38612,0.721744 2.78893,2.16641l0 -0.00118125zm2.70979 2.20539l-1.31946 -0.164194c0.0874125,-0.591806 0.360281,-1.05131 0.817425,-1.3797 0.458325,-0.327206 1.01824,-0.4914 1.68564,-0.4914 0.592987,0 1.07021,0.119306 1.42695,0.356737 0.355556,0.238613 0.579994,0.520931 0.672131,0.851681 0.0909563,0.328387 0.138206,0.823331 0.138206,1.48956l0 2.25973c0,0.915469 0.0389813,1.52499 0.116944,1.82976l-1.29347 0c-0.0555188,-0.239794 -0.0862312,-0.605981 -0.0862312,-1.10093 -0.414619,0.844594 -1.03714,1.26512 -1.86401,1.26512 -0.561094,0 -1.01115,-0.1701 -1.34899,-0.515025 -0.337838,-0.342562 -0.509119,-0.810338 -0.509119,-1.40096 0,-0.721744 0.249244,-1.29229 0.744188,-1.71399 0.497306,-0.420525 1.35962,-0.630787 2.58457,-0.630787 0.0637875,0 0.159469,0.00118125 0.289406,0.00590625l0 -0.269325c0,-0.473681 -0.070875,-0.829237 -0.212625,-1.07139 -0.14175,-0.238613 -0.3969,-0.361463 -0.764269,-0.361463 -0.601256,0 -0.959175,0.344925 -1.0773,1.03714l0 0.00354375zm2.05419 1.52499c-0.173644,-0.0177188 -0.307125,-0.0259875 -0.401625,-0.0259875 -1.18952,0 -1.78487,0.466594 -1.78487,1.39742 0,0.679219 0.294131,1.01706 0.885938,1.01706 0.344925,0 0.650869,-0.183094 0.910744,-0.550462 0.259875,-0.367369 0.389813,-0.872944 0.389813,-1.51672l0 -0.320119 0 -0.00118125zm2.90351 -3.402l1.26748 0 0 1.02414c0.307125,-0.789075 0.852862,-1.18007 1.63958,-1.18007 0.445331,0 0.807975,0.107494 1.08084,0.320119 0.272869,0.213806 0.445331,0.4725 0.520931,0.770175 0.070875,0.301219 0.106313,0.7749 0.106313,1.42341l0 4.27376 -1.36434 0 0 -4.20171c0,-0.577631 -0.051975,-0.970987 -0.153562,-1.17889 -0.100406,-0.2079 -0.313031,-0.31185 -0.643781,-0.31185 -0.341381,0 -0.607162,0.133481 -0.797344,0.3969 -0.190181,0.2646 -0.284681,0.791438 -0.284681,1.57933l0 3.71621 -1.37379 0 0 -6.63154 0.0023625 0zm8.74598 -2.33061l1.48365 0 0 7.70766 3.17166 0 0 1.25449 -4.65531 0 0 -8.96214zm5.50226 2.33061l1.37143 0 0 4.2147c0,0.587081 0.0484313,0.979256 0.146475,1.17771 0.0956812,0.200812 0.307125,0.297675 0.635513,0.297675 0.40635,0 0.691031,-0.177188 0.852862,-0.531563 0.16065,-0.354375 0.242156,-1.01115 0.242156,-1.96914l0 -3.19174 1.36434 0 0 6.63154 -1.25331 0 0 -0.995794c-0.354375,0.773719 -0.91665,1.15999 -1.68801,1.15999 -0.393356,0 -0.715837,-0.0826875 -0.968625,-0.248063 -0.252787,-0.165375 -0.432337,-0.402806 -0.542194,-0.709931 -0.111037,-0.305944 -0.164194,-0.838688 -0.164194,-1.59351l0 -4.24187 0.00354375 0zm7.6356 -0.893025l-1.43049 0 0 -1.45294 1.43049 0 0 1.45294zm-1.39742 0.893025l1.36671 0 0 6.63154 -1.36671 0 0 -6.63154zm6.97292 1.54862l-1.07139 0.289406c-0.197269,-0.666225 -0.570544,-0.995794 -1.12337,-0.995794 -0.253969,0 -0.457144,0.0779625 -0.61425,0.233887 -0.154744,0.159469 -0.232706,0.354375 -0.232706,0.584719 0,0.262237 0.0779625,0.454781 0.237431,0.578812 0.158288,0.124031 0.517388,0.276413 1.08203,0.459506 0.698119,0.232706 1.19661,0.492581 1.50373,0.78435 0.307125,0.290588 0.460688,0.696938 0.460688,1.21905 0,0.584719 -0.219712,1.08203 -0.656775,1.48483 -0.437062,0.40635 -1.02887,0.608344 -1.77306,0.608344 -1.40451,0 -2.20185,-0.643781 -2.38967,-1.92898l1.15999 -0.218531c0.1512,0.763088 0.572906,1.14227 1.26984,1.14227 0.354375,0 0.615431,-0.0874125 0.791438,-0.261056 0.172462,-0.176006 0.256331,-0.383906 0.256331,-0.626063 0,-0.165375 -0.0567,-0.329569 -0.177188,-0.494944 -0.116944,-0.164194 -0.447694,-0.334294 -0.988706,-0.509119 -0.522112,-0.166556 -0.915469,-0.320119 -1.17889,-0.466594 -0.2646,-0.142931 -0.483131,-0.350831 -0.653231,-0.627244 -0.171281,-0.272869 -0.25515,-0.583538 -0.25515,-0.928462 0,-0.563456 0.205538,-1.04304 0.617794,-1.43994 0.408712,-0.3969 0.943819,-0.592988 1.59587,-0.592988 1.10683,0 1.82031,0.568181 2.14042,1.70454l-0.00118125 0z"/>
   <path id="_538591656" class="fil1" d="M70.445 79.9635c12.7268,0 23.1064,-9.91896 23.1064,-22.0835 0,-12.1645 -10.3796,-22.0858 -23.1064,-22.0858 -12.7268,0 -23.1088,9.92132 -23.1088,22.0858 0,12.1645 10.3796,22.0835 23.1088,22.0835z"/>
   <path id="_538591896" class="fil1" d="M72.6811 38.1768c7.5033,0.948544 13.2229,4.59034 12.774,8.13173 -0.448875,3.54139 -6.89377,5.64637 -14.3959,4.69783 -7.5033,-0.949725 -13.2229,-4.59034 -12.774,-8.13409 0.448875,-3.54139 6.89259,-5.64637 14.3959,-4.69783l0 0.0023625z"/>
   <path id="_538591512" class="fil1" d="M46.4267 43.4204c-23.6971,-0.284681 -21.0889,12.0606 6.33977,21.7527 6.5016,2.39676 26.1517,6.23936 31.7886,6.22519 17.4577,1.0395 38.4993,-0.9072 21.1656,-13.5289 17.5156,7.73128 14.4254,18.0223 -21.194,14.8046 -10.3111,-0.819787 -21.7787,-3.02991 -32.0816,-6.30551 -29.9742,-8.8641 -42.6526,-27.1156 -6.01847,-22.9481z"/>
   <path id="_538591680" class="fil1" d="M56.2263 80.8518c-0.284681,23.6947 12.0594,21.0877 21.7515,-6.34095 2.39794,-6.5016 6.24054,-26.1517 6.22401,-31.7898 1.04186,-17.4577 -0.9072,-38.4993 -13.5265,-21.1656 7.7301,-17.5168 18.0223,-14.4266 14.8046,21.194 -0.819787,10.3111 -3.02991,21.7775 -6.30551,32.0804 -8.86646,29.973 -27.1168,42.6514 -22.9481,6.01965l0 0.0023625z"/>
   <path id="_538590480" class="fil1" d="M50.0212 68.2207c-3.9879,6.22873 -0.693394,8.41168 15.4673,1.7388 4.23242,-1.74943 15.5015,-8.69046 18.2326,-11.2266 8.94797,-7.31903 18.2952,-17.6987 4.21824,-16.0591 11.9732,-4.09539 15.0869,2.2869 -3.65951,16.6911 -5.37469,4.22533 -11.9365,8.29119 -18.411,11.3176 -18.1038,10.369 -26.1907,4.49584 -15.8477,-2.46527l0 0.00354375z"/>
   <path id="_538590456" class="fil1" d="M81.1932 77.594c5.78222,3.72212 7.66749,0.497306 1.11156,-14.9617 -1.71872,-4.04933 -8.37034,-14.781 -10.7565,-17.3667 -6.92567,-8.48492 -16.6426,-17.2947 -14.7243,-3.7422 -4.08831,-11.4723 1.62186,-14.6062 15.283,3.19056 4.00326,5.10182 7.9002,11.3518 10.8462,17.5368 9.97329,17.2581 4.88329,25.1854 -1.7577,15.3444l-0.0023625 -0.00118125z"/>
   <path id="_538590696" class="fil1" d="M71.5448 79.6978c12.7268,0 23.1064,-9.92132 23.1064,-22.0846 0,-12.1633 -10.3796,-22.0846 -23.1064,-22.0846 -12.7268,0 -23.1064,9.92132 -23.1064,22.0846 0,12.1645 10.3796,22.0846 23.1064,22.0846z"/>
   <path id="_538590528" class="fil1" d="M73.7832 37.9099c7.5033,0.947362 13.2229,4.59034 12.7752,8.13172 -0.447694,3.54375 -6.89259,5.64756 -14.3959,4.69783 -7.50212,-0.949725 -13.2229,-4.59034 -12.774,-8.13409 0.448875,-3.54257 6.89377,-5.64637 14.3959,-4.69665l-0.00118125 0.00118125z"/>
   <path id="_538591032" class="fil1" d="M47.5288 43.1487c-23.6971,-0.284681 -21.0889,12.0606 6.33977,21.7527 6.5016,2.39794 26.1517,6.23936 31.7886,6.22401 17.4565,1.0395 38.4981,-0.9072 21.1656,-13.5265 17.5168,7.7301 14.4254,18.0223 -21.194,14.8034 -10.3111,-0.818606 -21.7787,-3.02991 -32.0816,-6.30433 -29.9742,-8.86528 -42.6526,-27.1168 -6.01847,-22.9493z"/>
   <path id="_538590672" class="fil1" d="M57.3272 80.5849c-0.2835,23.6947 12.0606,21.0877 21.7527,-6.34095 2.39794,-6.50278 6.24054,-26.1505 6.22401,-31.7898 1.04186,-17.4577 -0.9072,-38.5005 -13.5265,-21.1656 7.7301,-17.5144 18.0223,-14.4254 14.8046,21.1952 -0.819788,10.3123 -3.02991,21.7787 -6.30551,32.0804 -8.86528,29.9742 -27.1144,42.6526 -22.9493,6.02083z"/>
   <path id="_538591008" class="fil1" d="M51.1233 67.9538c-3.9879,6.22873 -0.693394,8.41168 15.4673,1.7388 4.23478,-1.74825 15.5004,-8.69046 18.2326,-11.2266 8.94797,-7.31903 18.2952,-17.6987 4.21943,-16.0579 11.9743,-4.09776 15.0869,2.2869 -3.65951,16.6911 -5.37469,4.22415 -11.9365,8.29119 -18.4098,11.3176 -18.1038,10.3678 -26.1919,4.49702 -15.8477,-2.46409l-0.0023625 0.00118125z"/>
   <path id="_538590720" class="fil1" d="M82.2953 77.3258c5.78104,3.72212 7.66749,0.497306 1.11156,-14.9629 -1.7199,-4.04933 -8.37034,-14.7833 -10.7576,-17.3656 -6.92449,-8.48728 -16.6426,-17.2959 -14.7255,-3.7422 -4.08713,-11.4723 1.62067,-14.6073 15.283,3.18937 4.00326,5.10182 7.89902,11.3518 10.8462,17.5357 9.97329,17.2604 4.88211,25.1854 -1.75888,15.3456l0.00118125 0z"/>
   <path id="_284364032" class="fil2" d="M115.12 86.7675l2.70861 0.367369c-0.34965,1.19779 -1.03596,2.18767 -2.04947,2.96848 -1.01824,0.779625 -2.29281,1.16944 -3.82489,1.16944 -1.83803,0 -3.31813,-0.616613 -4.43914,-1.85574 -1.11982,-1.23322 -1.68092,-2.90587 -1.68092,-5.01795 0,-2.0034 0.565819,-3.66187 1.69509,-4.97543 1.13046,-1.31237 2.6649,-1.97269 4.59506,-1.97269 1.89236,0 3.35357,0.649687 4.38952,1.94552 1.03123,1.29583 1.54626,2.95785 1.54626,4.9896l-0.00945 0.344925 -9.10507 0c0,0.900112 0.0838688,1.62186 0.25515,2.16523 0.168919,0.543375 0.5103,1.01469 1.01706,1.4175 0.512662,0.402806 1.14463,0.6048 1.90536,0.6048 1.47893,0 2.47826,-0.717019 2.99565,-2.15224l0.00118125 0.00118125zm-0.183094 -3.96782c-0.00945,-0.953269 -0.296494,-1.73526 -0.861131,-2.34006 -0.564638,-0.601256 -1.26039,-0.904838 -2.09436,-0.904838 -0.825694,0 -1.51082,0.282319 -2.06246,0.845775 -0.550463,0.564638 -0.874125,1.36434 -0.972169,2.39912l5.99012 0zm16.8399 8.19551l-2.99447 0 0 -8.29119c0,-0.874125 -0.201994,-1.53208 -0.6048,-1.97741 -0.403987,-0.439425 -0.8883,-0.663862 -1.45884,-0.663862 -0.779625,0 -1.46593,0.346106 -2.04711,1.02769 -0.587081,0.6804 -0.883575,1.71281 -0.883575,3.08543l0 6.81936 -2.99447 0 0 -13.2666 2.73459 0 0 3.07716c0.95445,-2.23374 2.29044,-3.35475 4.01625,-3.35475 1.16589,0 2.16169,0.372094 2.99093,1.10683 0.825694,0.734737 1.24149,2.02702 1.24149,3.87332l0 8.56406zm9.72877 -2.33533l0 2.33533c-0.893025,0.193725 -1.58169,0.285862 -2.07073,0.285862 -0.807975,0 -1.49901,-0.157106 -2.07546,-0.473681 -0.578812,-0.323662 -1.00052,-0.758363 -1.26984,-1.31355 -0.269325,-0.556369 -0.400444,-1.41278 -0.400444,-2.56804l0 -6.86897 -1.65729 0 0 -2.32824 1.82858 0 0.272869 -3.45634 2.45818 -0.219713 0 3.67605 2.66726 0 0 2.32824 -2.66726 0 0 6.47325c0,0.829237 0.152381,1.39978 0.451237,1.69864 0.305944,0.305944 0.874125,0.4536 1.71281,0.4536 0.239794,0 0.490219,-0.00826875 0.750094,-0.0224438zm10.5781 -1.89236l2.70743 0.367369c-0.34965,1.19779 -1.03477,2.18767 -2.04947,2.96848 -1.01706,0.779625 -2.29163,1.16944 -3.82489,1.16944 -1.83802,0 -3.31695,-0.616613 -4.43914,-1.85574 -1.12101,-1.23322 -1.67974,-2.90587 -1.67974,-5.01795 0,-2.0034 0.563456,-3.66187 1.69273,-4.97543 1.13046,-1.31237 2.6649,-1.97269 4.59742,-1.97269 1.89118,0 3.35239,0.649687 4.38834,1.94552 1.03005,1.29583 1.54626,2.95785 1.54626,4.9896l-0.00826875 0.344925 -9.10744 0c0,0.900112 0.0862312,1.62186 0.25515,2.16523 0.171281,0.543375 0.5103,1.01469 1.01706,1.4175 0.512663,0.402806 1.14345,0.6048 1.90654,0.6048 1.48011,0 2.47944,-0.717019 2.99447,-2.15224l0.00354375 0.00118125zm-0.184275 -3.96782c-0.00945,-0.953269 -0.295312,-1.73526 -0.861131,-2.34006 -0.565819,-0.601256 -1.25921,-0.904838 -2.09318,-0.904838 -0.825694,0 -1.512,0.282319 -2.06246,0.845775 -0.551644,0.564638 -0.875306,1.36434 -0.974531,2.39912l5.99012 0 0.00118125 0zm8.85111 8.19551l-2.99447 0 0 -13.2666 2.70743 0 0 3.16457c0.386269,-1.23323 0.915469,-2.13334 1.58878,-2.7027 0.678037,-0.569363 1.36671,-0.856406 2.07546,-0.856406 0.099225,0 0.229163,0.004725 0.394537,0.0129938l0 3.22009c-1.52381,0 -2.53378,0.484313 -3.02636,1.45766 -0.493762,0.97335 -0.744187,1.91481 -0.744187,2.82555l0 6.14722 -0.00118125 -0.0023625z"/>
   <path id="_284332544" class="fil2" d="M110.361 93.7948l1.3608 0 0 8.96214 -1.25449 0 0 -1.00288c-0.318937,0.747731 -0.868219,1.12337 -1.64666,1.12337 -0.748913,0 -1.31119,-0.314213 -1.68564,-0.940275 -0.373275,-0.627244 -0.561094,-1.44821 -0.561094,-2.46173 0,-1.08911 0.206719,-1.93961 0.621338,-2.54914 0.412256,-0.605981 0.9639,-0.911925 1.65139,-0.911925 0.721744,0 1.22496,0.29295 1.51436,0.881213l0 -3.0996 0 -0.00118125zm0 5.06284c0,-0.683944 -0.127575,-1.16235 -0.385087,-1.43522 -0.259875,-0.272869 -0.526837,-0.409894 -0.800888,-0.409894 -0.761906,0 -1.14227,0.777263 -1.14227,2.33415 0,1.66556 0.385087,2.49716 1.15526,2.49716 0.297675,0 0.567,-0.140569 0.811519,-0.414619 0.242156,-0.275231 0.361463,-0.756 0.361463,-1.43758l0 -1.13636 0 0.0023625zm7.78089 0.78435l-3.74929 0c0,0.898931 0.121669,1.49782 0.362644,1.79786 0.243337,0.297675 0.549281,0.448875 0.91665,0.448875 0.61425,0 0.999338,-0.412256 1.16235,-1.23795l1.24504 0.164194c-0.327206,1.40332 -1.14463,2.10617 -2.45464,2.10617 -0.80325,0 -1.44231,-0.288225 -1.91835,-0.861131 -0.477225,-0.572906 -0.714656,-1.41159 -0.714656,-2.52197 0,-1.13518 0.239794,-2.01639 0.721744,-2.63773 0.480769,-0.622519 1.12455,-0.933188 1.92898,-0.933188 0.565819,0 1.04068,0.154744 1.42577,0.466594 0.385087,0.309488 0.656775,0.720562 0.8127,1.22378 0.159469,0.507937 0.243337,1.16944 0.258694,1.98686l0.0023625 -0.0023625zm-1.39742 -0.923738c0,-1.16944 -0.380363,-1.75297 -1.14227,-1.75297 -0.713475,0 -1.10565,0.5859 -1.17534,1.75297l2.31761 0zm10.4316 -2.92123l-1.26748 0.438244c-0.147656,-0.4725 -0.346106,-0.82215 -0.587081,-1.04659 -0.242156,-0.225619 -0.574088,-0.337838 -0.994613,-0.337838 -0.389812,0 -0.691031,0.1134 -0.903656,0.342562 -0.211444,0.231525 -0.318937,0.496125 -0.318937,0.791438 0,0.328388 0.119306,0.591806 0.3591,0.786713 0.237431,0.193725 0.715837,0.426431 1.42695,0.6993 0.609525,0.231525 1.07848,0.4536 1.40451,0.6615 0.33075,0.210263 0.59535,0.492581 0.798525,0.845775 0.203175,0.352013 0.303581,0.758363 0.303581,1.22378 0,0.752456 -0.2646,1.39387 -0.797344,1.92426 -0.531563,0.530381 -1.27811,0.792619 -2.23493,0.792619 -1.65729,0 -2.68026,-0.835144 -3.07243,-2.50779l1.32418 -0.373275c0.232706,1.10329 0.836325,1.65493 1.8144,1.65493 0.478406,0 0.839869,-0.124031 1.08793,-0.370913 0.246881,-0.246881 0.36855,-0.552825 0.36855,-0.91665 0,-0.266963 -0.08505,-0.513844 -0.25515,-0.741825 -0.168919,-0.2268 -0.592988,-0.471319 -1.27339,-0.72765 -0.719381,-0.271688 -1.23441,-0.502031 -1.55334,-0.68985 -0.316575,-0.187819 -0.587081,-0.465412 -0.811519,-0.832781 -0.224437,-0.367369 -0.333112,-0.785531 -0.333112,-1.25331 0,-0.715838 0.249244,-1.31355 0.744187,-1.80022 0.498487,-0.485494 1.15762,-0.72765 1.98214,-0.72765 1.45648,0 2.38612,0.721744 2.78893,2.16641l0 -0.00118125zm2.70979 2.20539l-1.31946 -0.164194c0.0874125,-0.591806 0.360281,-1.05131 0.817425,-1.3797 0.458325,-0.327206 1.01824,-0.4914 1.68564,-0.4914 0.592987,0 1.07021,0.119306 1.42695,0.356737 0.355556,0.238613 0.579994,0.520931 0.672131,0.851681 0.0909563,0.328387 0.138206,0.823331 0.138206,1.48956l0 2.25973c0,0.915469 0.0389813,1.52499 0.116944,1.82976l-1.29347 0c-0.0555188,-0.239794 -0.0862312,-0.605981 -0.0862312,-1.10093 -0.414619,0.844594 -1.03714,1.26512 -1.86401,1.26512 -0.561094,0 -1.01115,-0.1701 -1.34899,-0.515025 -0.337838,-0.342562 -0.509119,-0.810338 -0.509119,-1.40096 0,-0.721744 0.249244,-1.29229 0.744188,-1.71399 0.497306,-0.420525 1.35962,-0.630787 2.58457,-0.630787 0.0637875,0 0.159469,0.00118125 0.289406,0.00590625l0 -0.269325c0,-0.473681 -0.070875,-0.829237 -0.212625,-1.07139 -0.14175,-0.238613 -0.3969,-0.361463 -0.764269,-0.361463 -0.601256,0 -0.959175,0.344925 -1.0773,1.03714l0 0.00354375zm2.05419 1.52499c-0.173644,-0.0177188 -0.307125,-0.0259875 -0.401625,-0.0259875 -1.18952,0 -1.78487,0.466594 -1.78487,1.39742 0,0.679219 0.294131,1.01706 0.885938,1.01706 0.344925,0 0.650869,-0.183094 0.910744,-0.550462 0.259875,-0.367369 0.389813,-0.872944 0.389813,-1.51672l0 -0.320119 0 -0.00118125zm2.90351 -3.402l1.26748 0 0 1.02414c0.307125,-0.789075 0.852862,-1.18007 1.63958,-1.18007 0.445331,0 0.807975,0.107494 1.08084,0.320119 0.272869,0.213806 0.445331,0.4725 0.520931,0.770175 0.070875,0.301219 0.106313,0.7749 0.106313,1.42341l0 4.27376 -1.36434 0 0 -4.20171c0,-0.577631 -0.051975,-0.970987 -0.153562,-1.17889 -0.100406,-0.2079 -0.313031,-0.31185 -0.643781,-0.31185 -0.341381,0 -0.607162,0.133481 -0.797344,0.3969 -0.190181,0.2646 -0.284681,0.791438 -0.284681,1.57933l0 3.71621 -1.37379 0 0 -6.63154 0.0023625 0zm8.74598 -2.33061l1.48365 0 0 7.70766 3.17166 0 0 1.25449 -4.65531 0 0 -8.96214zm5.50226 2.33061l1.37143 0 0 4.2147c0,0.587081 0.0484313,0.979256 0.146475,1.17771 0.0956812,0.200812 0.307125,0.297675 0.635513,0.297675 0.40635,0 0.691031,-0.177188 0.852862,-0.531563 0.16065,-0.354375 0.242156,-1.01115 0.242156,-1.96914l0 -3.19174 1.36434 0 0 6.63154 -1.25331 0 0 -0.995794c-0.354375,0.773719 -0.91665,1.15999 -1.68801,1.15999 -0.393356,0 -0.715837,-0.0826875 -0.968625,-0.248063 -0.252787,-0.165375 -0.432337,-0.402806 -0.542194,-0.709931 -0.111037,-0.305944 -0.164194,-0.838688 -0.164194,-1.59351l0 -4.24187 0.00354375 0zm7.6356 -0.893025l-1.43049 0 0 -1.45294 1.43049 0 0 1.45294zm-1.39742 0.893025l1.36671 0 0 6.63154 -1.36671 0 0 -6.63154zm6.97292 1.54862l-1.07139 0.289406c-0.197269,-0.666225 -0.570544,-0.995794 -1.12337,-0.995794 -0.253969,0 -0.457144,0.0779625 -0.61425,0.233887 -0.154744,0.159469 -0.232706,0.354375 -0.232706,0.584719 0,0.262237 0.0779625,0.454781 0.237431,0.578812 0.158288,0.124031 0.517388,0.276413 1.08203,0.459506 0.698119,0.232706 1.19661,0.492581 1.50373,0.78435 0.307125,0.290588 0.460688,0.696938 0.460688,1.21905 0,0.584719 -0.219712,1.08203 -0.656775,1.48483 -0.437062,0.40635 -1.02887,0.608344 -1.77306,0.608344 -1.40451,0 -2.20185,-0.643781 -2.38967,-1.92898l1.15999 -0.218531c0.1512,0.763088 0.572906,1.14227 1.26984,1.14227 0.354375,0 0.615431,-0.0874125 0.791438,-0.261056 0.172462,-0.176006 0.256331,-0.383906 0.256331,-0.626063 0,-0.165375 -0.0567,-0.329569 -0.177188,-0.494944 -0.116944,-0.164194 -0.447694,-0.334294 -0.988706,-0.509119 -0.522112,-0.166556 -0.915469,-0.320119 -1.17889,-0.466594 -0.2646,-0.142931 -0.483131,-0.350831 -0.653231,-0.627244 -0.171281,-0.272869 -0.25515,-0.583538 -0.25515,-0.928462 0,-0.563456 0.205538,-1.04304 0.617794,-1.43994 0.408712,-0.3969 0.943819,-0.592988 1.59587,-0.592988 1.10683,0 1.82031,0.568181 2.14042,1.70454l-0.00118125 0z"/>
   <path id="_538590096" class="fil1" d="M68.8326 80.2258c12.7268,0 23.1041,-9.92014 23.1041,-22.0823 0,-12.1645 -10.3796,-22.0847 -23.1041,-22.0847 -12.7268,0 -23.1064,9.92132 -23.1064,22.0847 0,12.1622 10.3796,22.0823 23.1064,22.0823z"/>
   <path id="_538589976" class="fil1" d="M71.0687 38.4379c7.5033,0.949725 13.2229,4.59034 12.774,8.13291 -0.448875,3.54257 -6.89377,5.64638 -14.3959,4.69665 -7.5033,-0.948544 -13.2205,-4.59034 -12.774,-8.13291 0.448875,-3.54257 6.89377,-5.64756 14.3947,-4.69783l0.00118125 0.00118125z"/>
   <path id="_538590120" class="fil1" d="M44.8154 43.6814c-23.6947,-0.2835 -21.0877,12.0606 6.33859,21.7527 6.5016,2.39676 26.1517,6.24054 31.7886,6.22401 17.4565,1.04068 38.4993,-0.9072 21.1656,-13.5265 17.5156,7.7301 14.4254,18.0212 -21.194,14.8046 -10.3111,-0.819788 -21.7763,-3.02873 -32.0804,-6.30551 -29.9719,-8.86528 -42.6502,-27.1144 -6.01847,-22.9493z"/>
   <path id="_538590192" class="fil1" d="M54.6139 81.1176c-0.284681,23.6959 12.0594,21.0877 21.7504,-6.33977 2.39794,-6.5016 6.24054,-26.1517 6.22401,-31.7886 1.04186,-17.4565 -0.9072,-38.4969 -13.5265,-21.1656 7.7301,-17.5156 18.02,-14.4254 14.8034,21.194 -0.818606,10.3111 -3.02991,21.7787 -6.30433,32.0804 -8.86528,29.9719 -27.1156,42.6502 -22.9493,6.01847l0.0023625 0.00118125z"/>
   <path id="_538590360" class="fil1" d="M48.4088 68.4842c-3.9879,6.22637 -0.693394,8.4105 15.4673,1.7388 4.23242,-1.74943 15.5004,-8.69046 18.2326,-11.2254 8.94797,-7.31903 18.2952,-17.6987 4.21824,-16.0579 11.9732,-4.09658 15.0869,2.2869 -3.65951,16.6911 -5.37705,4.22415 -11.9365,8.29119 -18.411,11.3176 -18.1015,10.3678 -26.1895,4.49584 -15.8477,-2.46409z"/>
   <path id="_538589784" class="fil1" d="M79.5796 77.8562c5.78104,3.72212 7.66631,0.497306 1.11156,-14.9641 -1.7199,-4.04814 -8.37034,-14.781 -10.7565,-17.3656 -6.92567,-8.48492 -16.6426,-17.2935 -14.7243,-3.74338 -4.08831,-11.4723 1.61949,-14.605 15.2818,3.19056 4.00326,5.103 7.89902,11.3506 10.8462,17.5368 9.97329,17.2581 4.88211,25.1842 -1.75888,15.3433l0 0.0023625z"/>
   <path id="_538589664" class="fil3" d="M69.9324 79.9541c12.7268,0 23.1064,-9.92014 23.1064,-22.0846 0,-12.1622 -10.3796,-22.0835 -23.1064,-22.0835 -12.7268,0 -23.1064,9.92132 -23.1064,22.0835 0,12.1633 10.3796,22.0846 23.1064,22.0846z"/>
   <path id="_284990624" class="fil4" d="M113.506 87.0298l2.70743 0.367369c-0.34965,1.19543 -1.03478,2.18767 -2.04947,2.9673 -1.01706,0.780806 -2.29162,1.17062 -3.82489,1.17062 -1.83803,0 -3.31695,-0.618975 -4.43796,-1.85574 -1.12219,-1.23441 -1.68092,-2.90706 -1.68092,-5.01795 0,-2.00458 0.563456,-3.66188 1.69509,-4.97661 1.12928,-1.31355 2.66254,-1.97387 4.59506,-1.97387 1.89236,0 3.35357,0.650869 4.38834,1.94552 1.03123,1.29583 1.54626,2.95903 1.54626,4.99078l-0.0106313 0.343744 -9.10507 0c0,0.902475 0.0862312,1.62422 0.25515,2.16523 0.171281,0.543375 0.5103,1.01233 1.01824,1.4175 0.5103,0.405169 1.14345,0.605981 1.90418,0.605981 1.47892,0 2.47944,-0.7182 2.99447,-2.15224l0.004725 0.0023625zm-0.184275 -3.96782c-0.00945,-0.95445 -0.295312,-1.73644 -0.861131,-2.34006 -0.565819,-0.602438 -1.25921,-0.906019 -2.09317,-0.906019 -0.825694,0 -1.512,0.2835 -2.06246,0.846956 -0.551644,0.565819 -0.875306,1.36316 -0.97335,2.39912l5.98894 0 0.00118125 0zm16.8399 8.19551l-2.99565 0 0 -8.29119c0,-0.872944 -0.201994,-1.53326 -0.6048,-1.97623 -0.402806,-0.440606 -0.887119,-0.665044 -1.45648,-0.665044 -0.779625,0 -1.46593,0.343744 -2.04947,1.02651 -0.587081,0.681581 -0.884756,1.71399 -0.884756,3.08543l0 6.82054 -2.99329 0 0 -13.2666 2.73578 0 0 3.07479c0.953269,-2.23256 2.28926,-3.35239 4.01625,-3.35239 1.16471,0 2.15932,0.372094 2.98856,1.10683 0.825694,0.734737 1.24149,2.02584 1.24149,3.87332l0 8.5617 0.0023625 0.0023625zm9.72759 -2.33651l0 2.33651c-0.891844,0.192544 -1.58169,0.285862 -2.07073,0.285862 -0.807975,0 -1.49664,-0.155925 -2.07546,-0.474863 -0.578812,-0.323662 -0.999338,-0.757181 -1.26984,-1.31355 -0.268144,-0.555188 -0.398081,-1.41159 -0.398081,-2.56804l0 -6.86897 -1.65729 0 0 -2.32706 1.82858 0 0.272869 -3.45752 2.457 -0.219712 0 3.67723 2.66726 0 0 2.32706 -2.66726 0 0 6.47443c0,0.829238 0.153562,1.39742 0.4536,1.69864 0.303581,0.304762 0.874125,0.4536 1.71281,0.4536 0.237431,0 0.490219,-0.00826875 0.747731,-0.023625l-0.00118125 0zm10.5781 -1.89118l2.70743 0.367369c-0.348469,1.19543 -1.03477,2.18767 -2.04947,2.9673 -1.01706,0.780806 -2.29163,1.17062 -3.82371,1.17062 -1.83921,0 -3.31813,-0.618975 -4.43914,-1.85574 -1.12219,-1.23441 -1.68092,-2.90706 -1.68092,-5.01795 0,-2.00458 0.563456,-3.66188 1.69509,-4.97661 1.12928,-1.31355 2.66372,-1.97387 4.59506,-1.97387 1.89236,0 3.35357,0.650869 4.38834,1.94552 1.03123,1.29583 1.54626,2.95903 1.54626,4.99078l-0.00945 0.343744 -9.10626 0c0,0.902475 0.0862312,1.62422 0.25515,2.16523 0.171281,0.543375 0.5103,1.01233 1.01824,1.4175 0.5103,0.405169 1.14345,0.605981 1.90418,0.605981 1.47892,0 2.47944,-0.7182 2.99565,-2.15224l0.00354375 0.0023625zm-0.185456 -3.96782c-0.00945,-0.95445 -0.295312,-1.73644 -0.861131,-2.34006 -0.564638,-0.602438 -1.26039,-0.906019 -2.09318,-0.906019 -0.825694,0 -1.512,0.2835 -2.06364,0.846956 -0.550462,0.565819 -0.874125,1.36316 -0.970988,2.39912l5.98894 0zm8.84992 8.19551l-2.99565 0 0 -13.2666 2.70861 0 0 3.16457c0.385087,-1.23322 0.915469,-2.13452 1.58642,-2.7027 0.678037,-0.569363 1.36789,-0.857587 2.07546,-0.857587 0.099225,0 0.229163,0.00590625 0.394537,0.0129937l0 3.22009c-1.52381,0 -2.53378,0.484312 -3.02636,1.45884 -0.493763,0.970987 -0.744188,1.91481 -0.744188,2.82437l0 6.14723 0.00118125 -0.00118125z"/>
   <path id="_284992040" class="fil4" d="M108.747 94.0558l1.3608 0 0 8.96214 -1.25567 0 0 -1.00406c-0.317756,0.747731 -0.867037,1.12337 -1.64548,1.12337 -0.750094,0 -1.31001,-0.314213 -1.68564,-0.939094 -0.374456,-0.628425 -0.561094,-1.44821 -0.561094,-2.46291 0,-1.08911 0.206719,-1.93961 0.621337,-2.54914 0.412256,-0.605981 0.9639,-0.911925 1.65139,-0.911925 0.721744,0 1.22496,0.29295 1.51436,0.881213l0 -3.0996zm0 5.06284c0,-0.683944 -0.128756,-1.15999 -0.385087,-1.43286 -0.259875,-0.272869 -0.526837,-0.409894 -0.800888,-0.409894 -0.763087,0 -1.14463,0.777263 -1.14463,2.33533 0,1.66438 0.385087,2.49716 1.15526,2.49716 0.297675,0 0.567,-0.138206 0.811519,-0.414619 0.242156,-0.276413 0.362644,-0.756 0.362644,-1.4364l0 -1.13636 0.00118125 -0.0023625zm7.78089 0.786713l-3.75047 0c0,0.898931 0.120488,1.49782 0.362644,1.79786 0.244519,0.297675 0.549281,0.448875 0.91665,0.448875 0.615431,0 1.00052,-0.412256 1.16471,-1.24031l1.24504 0.164194c-0.327206,1.40451 -1.14463,2.10617 -2.45464,2.10617 -0.80325,0 -1.44231,-0.285863 -1.91835,-0.85995 -0.477225,-0.571725 -0.714656,-1.41159 -0.714656,-2.52197 0,-1.13636 0.238612,-2.01758 0.721744,-2.63773 0.48195,-0.622519 1.12573,-0.932006 1.93016,-0.932006 0.564638,0 1.04068,0.154744 1.42577,0.466594 0.385087,0.309488 0.656775,0.720562 0.8127,1.22378 0.159469,0.507937 0.244519,1.16707 0.257513,1.98686l0.00118125 -0.0023625zm-1.39742 -0.924919c0,-1.16826 -0.382725,-1.75179 -1.14345,-1.75179 -0.711112,0 -1.10447,0.584719 -1.17534,1.75179l2.31879 0zm10.4316 -2.92005l-1.26984 0.438244c-0.147656,-0.4725 -0.344925,-0.82215 -0.587081,-1.04659 -0.242156,-0.225619 -0.572906,-0.337838 -0.994613,-0.337838 -0.389813,0 -0.691031,0.1134 -0.903656,0.342562 -0.211444,0.231525 -0.318937,0.494944 -0.318937,0.791438 0,0.33075 0.119306,0.591806 0.357919,0.786713 0.237431,0.192544 0.715837,0.42525 1.42695,0.6993 0.609525,0.230344 1.07848,0.452419 1.40687,0.660319 0.327206,0.211444 0.592988,0.493762 0.797344,0.844594 0.203175,0.350831 0.303581,0.760725 0.303581,1.22378 0,0.752456 -0.2646,1.39506 -0.797344,1.92544 -0.531563,0.5292 -1.27811,0.792619 -2.23493,0.792619 -1.65611,0 -2.68026,-0.835144 -3.07243,-2.50779l1.32536 -0.374456c0.231525,1.10211 0.836325,1.65493 1.81204,1.65493 0.477225,0 0.839869,-0.12285 1.08675,-0.36855 0.248063,-0.246881 0.370913,-0.554006 0.370913,-0.91665 0,-0.266963 -0.0862313,-0.513844 -0.25515,-0.743006 -0.1701,-0.225619 -0.592988,-0.471319 -1.27221,-0.728831 -0.720562,-0.270506 -1.23559,-0.502031 -1.55452,-0.68985 -0.317756,-0.189 -0.5859,-0.466594 -0.810338,-0.833962 -0.224438,-0.367369 -0.333112,-0.783169 -0.333112,-1.25331 0,-0.715838 0.248062,-1.31355 0.744187,-1.79904 0.497306,-0.486675 1.15526,-0.728831 1.97978,-0.728831 1.45648,0 2.38612,0.721744 2.79011,2.16641l0.0023625 0.0023625zm2.70743 2.20539l-1.31946 -0.164194c0.0874125,-0.591806 0.360281,-1.05131 0.817425,-1.3797 0.457144,-0.327206 1.01942,-0.4914 1.68564,-0.4914 0.592987,0 1.07139,0.119306 1.42695,0.356737 0.357919,0.238613 0.582356,0.520931 0.673313,0.851681 0.0909563,0.326025 0.138206,0.823331 0.138206,1.48956l0 2.25855c0,0.914288 0.0366188,1.52381 0.116944,1.83094l-1.29229 0c-0.0567,-0.239794 -0.0862312,-0.607163 -0.0862312,-1.10211 -0.414619,0.845775 -1.03714,1.2663 -1.86401,1.2663 -0.561094,0 -1.01115,-0.1701 -1.35017,-0.515025 -0.337838,-0.342562 -0.507937,-0.810338 -0.507937,-1.40096 0,-0.721744 0.248062,-1.29229 0.744187,-1.71517 0.497306,-0.419344 1.35844,-0.629606 2.58457,-0.629606 0.0626063,0 0.159469,0.00118125 0.289406,0.00590625l0 -0.269325c0,-0.473681 -0.0720563,-0.829237 -0.213806,-1.07139 -0.140569,-0.238613 -0.395719,-0.361463 -0.763087,-0.361463 -0.600075,0 -0.959175,0.344925 -1.07848,1.03714l-0.00118125 0.00354375zm2.05656 1.52263c-0.174825,-0.0177188 -0.307125,-0.0259875 -0.401625,-0.0259875 -1.18952,0 -1.78487,0.466594 -1.78487,1.39978 0,0.679219 0.294131,1.01706 0.885938,1.01706 0.344925,0 0.649687,-0.183094 0.909562,-0.550462 0.261056,-0.367369 0.390994,-0.874125 0.390994,-1.51672l0 -0.320119 0 -0.00354375zm2.90115 -3.402l1.26748 0 0 1.02414c0.307125,-0.787894 0.854044,-1.18007 1.64076,-1.18007 0.445331,0 0.805612,0.107494 1.07848,0.320119 0.272869,0.216169 0.445331,0.473681 0.51975,0.772538 0.0720563,0.300037 0.107494,0.7749 0.107494,1.42222l0 4.27258 -1.36316 0 0 -4.20289c0,-0.57645 -0.051975,-0.969806 -0.152381,-1.17889 -0.101587,-0.2079 -0.314212,-0.31185 -0.643781,-0.31185 -0.3402,0 -0.607162,0.1323 -0.798525,0.3969 -0.190181,0.2646 -0.284681,0.791438 -0.284681,1.58051l0 3.71503 -1.37379 0 0 -6.63154 0.0023625 0.00118125zm8.74597 -2.33061l1.48365 0 0 7.70766 3.17166 0 0 1.25449 -4.65531 0 0 -8.96214zm5.50226 2.33061l1.37143 0 0 4.2147c0,0.587081 0.0507938,0.979256 0.146475,1.17889 0.0956812,0.199631 0.307125,0.297675 0.636694,0.297675 0.40635,0 0.68985,-0.177188 0.854044,-0.531563 0.16065,-0.354375 0.242156,-1.01115 0.242156,-1.97033l0 -3.19056 1.36553 0 0 6.63154 -1.25331 0 0 -0.998156c-0.354375,0.773719 -0.91665,1.16117 -1.68801,1.16117 -0.394537,0 -0.715837,-0.0838687 -0.968625,-0.249244 -0.252788,-0.165375 -0.432337,-0.402806 -0.542194,-0.709931 -0.111038,-0.305944 -0.164194,-0.838688 -0.164194,-1.59351l0 -4.24187 0 0.00118125zm7.63442 -0.890663l-1.43049 0 0 -1.45294 1.43049 0 0 1.45294zm-1.39742 0.890663l1.36671 0 0 6.63154 -1.36671 0 0 -6.63154zm6.9741 1.5498l-1.07139 0.289406c-0.19845,-0.667406 -0.571725,-0.998156 -1.12337,-0.998156 -0.252788,0 -0.455962,0.0779625 -0.61425,0.235069 -0.154744,0.159469 -0.233887,0.354375 -0.233887,0.5859 0,0.261056 0.0779625,0.454781 0.237431,0.577631 0.157106,0.12285 0.517388,0.276413 1.08203,0.459506 0.698119,0.233888 1.19661,0.4914 1.50373,0.78435 0.307125,0.290588 0.458325,0.696938 0.458325,1.21905 0,0.584719 -0.219712,1.08321 -0.656775,1.48601 -0.437062,0.403987 -1.02887,0.607162 -1.77187,0.607162 -1.40332,0 -2.20067,-0.643781 -2.38849,-1.92898l1.15999 -0.21735c0.150019,0.761906 0.572906,1.14345 1.26984,1.14345 0.354375,0 0.615431,-0.0874125 0.791438,-0.261056 0.172462,-0.176006 0.258694,-0.383906 0.258694,-0.626063 0,-0.165375 -0.0590625,-0.329569 -0.177187,-0.496125 -0.116944,-0.164194 -0.448875,-0.333112 -0.989888,-0.507937 -0.522113,-0.166556 -0.914288,-0.320119 -1.17889,-0.466594 -0.2646,-0.142931 -0.480769,-0.350831 -0.653231,-0.627244 -0.1701,-0.272869 -0.25515,-0.582356 -0.25515,-0.928462 0,-0.565819 0.206719,-1.04304 0.618975,-1.43994 0.409894,-0.3969 0.942638,-0.592988 1.59469,-0.592988 1.10683,0 1.81913,0.568181 2.14042,1.70454l-0.00118125 -0.00118125z"/>
   <path id="_538589064" class="fil5" d="M164.175 106.968l0.0366188 -14.2612 2.69325 0.00826875 -0.0366188 14.2612 -1.34781 1.34308 -1.34544 -1.35135zm2.69325 0.0070875l-0.00354375 1.34426 -1.34426 0 1.34781 -1.34308 0 -0.00118125zm-74.388 -1.38206l73.0414 0.0307125 -0.00118125 2.69325 -73.0414 -0.0318937 0.00118125 -2.69325 0 0.00118125zm-9.47481 1.34308l18.8551 -8.0703 -0.2457 0.505575 -0.229162 0.505575 -0.212625 0.505575 -0.197269 0.504394 -0.181912 0.505575 -0.165375 0.505575 -0.150019 0.505575 -0.134663 0.505575 -0.118125 0.505575 -0.102769 0.505575 -0.0874125 0.505575 -0.0720563 0.505575 -0.0555187 0.505575 -0.0401625 0.505575 -0.0248062 0.505575 -0.00826875 0.505575 0.00826875 0.505575 0.0248062 0.505575 0.0389813 0.504394 0.0555188 0.504394 0.070875 0.505575 0.0862313 0.505575 0.102769 0.505575 0.118125 0.505575 0.135844 0.505575 0.148837 0.505575 0.166556 0.505575 0.181913 0.505575 0.196087 0.504394 0.212625 0.505575 0.229163 0.504394 0.244519 0.505575 0 0 -18.8468 -8.08684 -0.00354375 -0.0153563z"/>
   <polygon id="_284992520" class="fil6 str0" points="85.2331,64.8837 83.7376,63.1473 86.2537,62.9831 87.3912,61.0376 88.4284,63.2382 90.5735,63.7249 88.8087,65.1235 89.0344,67.7943 86.9648,66.4536 84.8338,67.2651 "/>
   <polygon id="_284993096" class="fil6 str0" points="51.3631,59.8906 49.8688,58.1588 52.3813,57.9947 53.5189,56.0562 54.5549,58.2451 56.6988,58.7317 54.9352,60.1304 55.1608,62.8012 53.0936,61.4557 50.9662,62.2661 "/>
   <path id="_284993048" class="fil7 str1" d="M69.6122 53.2567l0.809156 -0.147656 -0.275231 6.57366 -0.101588 0.1323c-1.82385,-0.0389812 -3.80835,-0.0567 -5.95704,-0.0567 -1.97151,0 -3.93356,0.0200812 -5.88499,0.0567l-0.101588 -2.28808c0.790256,-0.709931 1.54744,-1.38679 2.27627,-2.03293 0.724106,-0.640237 1.35726,-1.21433 1.89473,-1.73289 0.577631,-0.531562 1.05722,-1.03596 1.43876,-1.50373 0.380363,-0.4725 0.681581,-0.9261 0.904837,-1.36789 0.224438,-0.447694 0.380363,-0.883575 0.477225,-1.31119 0.0956812,-0.433519 0.138206,-0.882394 0.138206,-1.36198 0,-1.09856 -0.305944,-1.96088 -0.914288,-2.60229 -0.609525,-0.637875 -1.37143,-0.952087 -2.29517,-0.952087 -0.937913,0 -1.9467,0.389812 -3.02282,1.17652l-0.532744 -1.49664c1.74234,-1.58524 3.53312,-2.37786 5.37114,-2.37786 1.53799,0 2.80074,0.505575 3.79536,1.52736 0.994613,1.01588 1.49546,2.27627 1.49546,3.77173 0,0.908381 -0.152381,1.70573 -0.455962,2.39676 -0.301219,0.685125 -0.758363,1.34899 -1.36789,1.99513 -0.609525,0.637875 -1.37143,1.31001 -2.29517,1.99986 -0.919013,0.698119 -1.99868,1.49546 -3.2319,2.41093l0.014175 0.089775 6.79101 0 1.03359 -2.90351 -0.00354375 0.004725zm2.29989 15.12l-0.108675 -1.65021c1.18007,-0.051975 2.25146,-0.242156 3.22363,-0.575269 0.966262,-0.326025 1.79077,-0.779625 2.46645,-1.35489 0.681581,-0.57645 1.20488,-1.25803 1.57697,-2.05183 0.370912,-0.792619 0.55755,-1.6821 0.55755,-2.66608 0,-1.61004 -0.386269,-2.89643 -1.15762,-3.84851 -0.771356,-0.959175 -1.82267,-1.43168 -3.15158,-1.43168 -1.05131,0 -2.04238,0.134663 -2.97084,0.409894l-0.0862312 -0.128756 0.809156 -12.7221c1.61004,0.051975 3.33231,0.0767812 5.16206,0.0767812 1.91008,0 3.56619,-0.0259875 4.98133,-0.0767812l0.08505 0.152381 -0.347287 4.39898 -8.45657 0 -0.318938 4.3659c0.908381,-0.17955 1.85811,-0.262237 2.84327,-0.262237 2.01876,0 3.64652,0.683944 4.88565,2.05301 1.23795,1.36671 1.85811,3.12559 1.85811,5.28728 0,1.38679 -0.229163,2.68498 -0.681581,3.88631 -0.446512,1.20724 -1.1529,2.25619 -2.10971,3.15866 -0.962719,0.895387 -2.18649,1.61004 -3.67605,2.14161 -1.49546,0.530381 -3.28742,0.811519 -5.38178,0.837506l-0.0023625 0z"/>
   <path id="_284993360" class="fil7 str2" d="M65.257 76.4564l-0.760725 0 -0.315394 -0.939094 -1.51909 0 -0.308306 0.939094 -0.605981 0 1.31001 -3.94774 0.874125 0 1.32536 3.94774zm-1.2663 -1.50964l-0.575269 -1.76243 -0.57645 1.76243 1.15172 0zm4.72146 1.50964l-0.691031 0 -1.49901 -2.52315c-0.0224437,-0.0389813 -0.0590625,-0.100406 -0.112219,-0.186638 -0.0224438,-0.0389812 -0.0578813,-0.100406 -0.106313,-0.183094l0 2.89288 -0.574087 0 0 -3.94774 0.786712 0 1.38324 2.32352c0.0118125,0.0200813 0.0945,0.163012 0.251606,0.426431l0 -2.74995 0.561094 0 0 3.94774zm-0.694575 -5.01795l0.201994 0.297675c-0.0460688,0.0956812 -0.131119,0.177188 -0.25515,0.240975 -0.124031,0.0649687 -0.232706,0.0968625 -0.329569,0.0968625 -0.116944,0 -0.263419,-0.0448875 -0.439425,-0.135844 -0.133481,-0.070875 -0.230344,-0.10395 -0.295313,-0.10395 -0.0909563,0 -0.211444,0.0744187 -0.365006,0.225619l-0.199631 -0.297675c0.17955,-0.222075 0.372094,-0.333112 0.582356,-0.333112 0.099225,0 0.230344,0.0378 0.389813,0.112219 0.173644,0.0815063 0.303581,0.121669 0.388631,0.121669 0.116944,0 0.224437,-0.0744187 0.320119,-0.224437l0.00118125 0zm3.01691 5.07819c-0.523294,0 -0.933188,-0.19845 -1.22496,-0.590625 -0.29295,-0.393356 -0.437062,-0.87885 -0.437062,-1.45766 0,-0.574088 0.153563,-1.05486 0.464231,-1.44112 0.310669,-0.38745 0.721744,-0.581175 1.2285,-0.581175 0.512663,0 0.91665,0.193725 1.21669,0.581175 0.296494,0.385087 0.446512,0.8694 0.446512,1.44939 0,0.609525 -0.154744,1.10211 -0.46305,1.47774 -0.310669,0.375637 -0.720562,0.562275 -1.23086,0.562275zm0.004725 -0.574087c0.257513,0 0.473681,-0.105131 0.650869,-0.316575 0.177188,-0.212625 0.265781,-0.596531 0.265781,-1.15408 0,-0.4536 -0.0732375,-0.809156 -0.218531,-1.06431 -0.146475,-0.257513 -0.374456,-0.386269 -0.681581,-0.386269 -0.610706,0 -0.915469,0.4914 -0.915469,1.47184 0,0.476044 0.0767812,0.836325 0.232706,1.08203 0.155925,0.2457 0.376819,0.367369 0.666225,0.367369zm1.93843 -0.438244l0.68985 -0.148837c0.0826875,0.392175 0.400444,0.587081 0.95445,0.587081 0.251606,0 0.446512,-0.0484313 0.583537,-0.148838 0.137025,-0.099225 0.203175,-0.224437 0.203175,-0.373275 0,-0.106313 -0.0307125,-0.2079 -0.0921375,-0.298856 -0.0626063,-0.0921375 -0.196088,-0.164194 -0.3969,-0.216169l-0.754819 -0.196087c-0.257513,-0.0673313 -0.447694,-0.145294 -0.571725,-0.229163 -0.124031,-0.0862312 -0.224438,-0.2079 -0.297675,-0.362644 -0.0744187,-0.155925 -0.112219,-0.323662 -0.112219,-0.50085 0,-0.353194 0.1323,-0.635513 0.393356,-0.8505 0.263419,-0.212625 0.598894,-0.320119 1.00643,-0.320119 0.3402,0 0.643781,0.0756 0.910744,0.223256 0.2646,0.147656 0.437063,0.3591 0.5103,0.630787l-0.678037 0.166556c-0.10395,-0.298856 -0.346106,-0.447694 -0.728831,-0.447694 -0.222075,0 -0.390994,0.0448875 -0.506756,0.138206 -0.116944,0.0921375 -0.176006,0.209081 -0.176006,0.352013 0,0.225619 0.184275,0.383906 0.550463,0.474863l0.67095 0.167738c0.40635,0.101588 0.679219,0.251606 0.818606,0.451238 0.138206,0.200812 0.2079,0.421706 0.2079,0.6615 0,0.38745 -0.145294,0.694575 -0.438244,0.915469 -0.29295,0.223256 -0.669769,0.334294 -1.13636,0.334294 -0.390994,0 -0.732375,-0.080325 -1.02769,-0.246881 -0.294131,-0.164194 -0.489037,-0.419344 -0.584719,-0.76545l0.0023625 0.0023625z"/>
   <path id="_284993504" class="fil8" d="M80.6817 77.588c5.78104,3.71976 7.66513,0.494944 1.11156,-14.9641 -1.7199,-4.04814 -8.37034,-14.781 -10.7588,-17.3656 -6.92449,-8.4861 -16.6403,-17.2959 -14.7231,-3.74338 -4.08713,-11.4723 1.62067,-14.6062 15.283,3.18937 4.00326,5.10182 7.89902,11.3518 10.8462,17.5357 9.97329,17.2592 4.88211,25.1854 -1.75888,15.3456l0 0.0023625z"/>
   <path id="_284994944" class="fil9" d="M55.7148 80.84c-0.2835,23.6947 12.0606,21.0877 21.7515,-6.34095 2.39794,-6.5016 6.23936,-26.1505 6.22401,-31.7874 1.04186,-17.4565 -0.9072,-38.4981 -13.5265,-21.1656 7.7301,-17.5156 18.02,-14.4254 14.8034,21.1928 -0.818606,10.3123 -3.02991,21.7787 -6.30433,32.0804 -8.86528,29.973 -27.1156,42.6502 -22.9493,6.01965l0.00118125 0.00118125z"/>
   <path id="_284996096" class="fil10" d="M49.5109 68.216c-3.9879,6.22637 -0.692212,8.4105 15.4673,1.7388 4.23478,-1.74943 15.5004,-8.69164 18.2326,-11.2254 8.94797,-7.31903 18.2952,-17.6987 4.21706,-16.0591 11.9743,-4.09658 15.0857,2.28808 -3.65833,16.6922 -5.37469,4.22415 -11.9365,8.29119 -18.411,11.3187 -18.1015,10.3678 -26.1895,4.49584 -15.8477,-2.46527z"/>
   <path id="_284996624" class="fil11" d="M44.8143 43.6814c-23.6959,-0.2835 -21.0877,12.0606 6.33977,21.7515 6.5016,2.39794 26.1517,6.23936 31.7886,6.22401 17.4565,1.0395 38.4993,-0.9072 21.1656,-13.5265 17.5156,7.7301 14.4254,18.02 -21.194,14.8022 -10.3111,-0.817425 -21.7787,-3.02873 -32.0804,-6.30315 -29.9719,-8.86528 -42.6502,-27.1156 -6.01847,-22.9493l-0.00118125 0.00118125z"/>
   <polygon id="_284997464" class="fil7" points="53.3523,50.6307 56.335,50.6307 56.335,47.6493 57.3532,47.6493 57.3532,50.6307 60.3288,50.6307 60.3288,51.6561 57.3532,51.6561 57.3532,54.6304 56.335,54.6304 56.335,51.6561 53.3523,51.6561 "/>
  </g>
 </g>
</svg>
